<?xml version="1.0" encoding="iso-8859-1"?>
<!-- Uploaded to: SVG Repo, www.svgrepo.com, Generator: SVG Repo Mixer Tools -->
<svg version="1.1" id="Layer_1" xmlns="http://www.w3.org/2000/svg" xmlns:xlink="http://www.w3.org/1999/xlink" 
	 viewBox="0 0 512 512" xml:space="preserve">
<rect x="234.442" y="105.095" style="fill:#D8CCBC;" width="140.126" height="183.242"/>
<rect x="72.758" y="83.537" style="fill:#95D5A7;" width="172.463" height="204.8"/>
<rect x="202.105" y="83.537" style="fill:#80CB93;" width="43.116" height="204.8"/>
<path style="fill:#797781;" d="M428.463,277.558H83.537c-41.499,0-75.453,33.954-75.453,75.453l0,0
	c0,41.499,33.954,75.453,75.453,75.453h344.926c41.499,0,75.453-33.954,75.453-75.453l0,0
	C503.916,311.512,469.962,277.558,428.463,277.558z"/>
<path style="fill:#58575D;" d="M428.463,277.558h-43.116c41.499,0,75.453,33.954,75.453,75.453l0,0
	c0,41.499-33.954,75.453-75.453,75.453h43.116c41.499,0,75.453-33.954,75.453-75.453l0,0
	C503.916,311.512,469.962,277.558,428.463,277.558z"/>
<g>
	<circle style="fill:#EDEDED;" cx="83.537" cy="353.01" r="21.558"/>
	<circle style="fill:#EDEDED;" cx="428.463" cy="353.01" r="21.558"/>
	<circle style="fill:#EDEDED;" cx="256" cy="353.01" r="21.558"/>
	<circle style="fill:#EDEDED;" cx="342.232" cy="353.01" r="21.558"/>
	<circle style="fill:#EDEDED;" cx="169.768" cy="353.01" r="21.558"/>
</g>
<g>
	<path style="fill:#D8D8DA;" d="M83.537,331.453c-3.931,0-7.606,1.069-10.779,2.907c6.437,3.73,10.779,10.675,10.779,18.651
		c0,7.975-4.342,14.921-10.779,18.651c3.173,1.838,6.848,2.907,10.779,2.907c11.906,0,21.558-9.651,21.558-21.558
		C105.095,341.104,95.443,331.453,83.537,331.453z"/>
	<path style="fill:#D8D8DA;" d="M428.463,331.453c-3.931,0-7.606,1.069-10.779,2.907c6.437,3.73,10.779,10.675,10.779,18.651
		c0,7.975-4.342,14.921-10.779,18.651c3.173,1.838,6.848,2.907,10.779,2.907c11.906,0,21.558-9.651,21.558-21.558
		C450.021,341.104,440.37,331.453,428.463,331.453z"/>
	<path style="fill:#D8D8DA;" d="M256,331.453c-3.931,0-7.606,1.069-10.779,2.907c6.437,3.73,10.779,10.675,10.779,18.651
		c0,7.975-4.342,14.921-10.779,18.651c3.173,1.838,6.848,2.907,10.779,2.907c11.906,0,21.558-9.651,21.558-21.558
		C277.558,341.104,267.906,331.453,256,331.453z"/>
	<path style="fill:#D8D8DA;" d="M342.232,331.453c-3.931,0-7.606,1.069-10.779,2.907c6.437,3.73,10.779,10.675,10.779,18.651
		c0,7.975-4.342,14.921-10.779,18.651c3.173,1.838,6.848,2.907,10.779,2.907c11.906,0,21.558-9.651,21.558-21.558
		C363.789,341.104,354.138,331.453,342.232,331.453z"/>
	<path style="fill:#D8D8DA;" d="M169.768,331.453c-3.931,0-7.606,1.069-10.779,2.907c6.437,3.73,10.779,10.675,10.779,18.651
		c0,7.975-4.342,14.921-10.779,18.651c3.173,1.838,6.848,2.907,10.779,2.907c11.906,0,21.558-9.651,21.558-21.558
		C191.326,341.104,181.675,331.453,169.768,331.453z"/>
</g>
<path style="fill:#E07188;" d="M299.116,183.086c-8.284,0-15.836,3.118-21.558,8.241c-5.721-5.122-13.274-8.241-21.558-8.241
	c-17.86,0-32.337,14.478-32.337,32.337s10.779,62.135,32.337,62.135c8.284,0,15.836-3.118,21.558-8.241
	c5.721,5.122,13.274,8.241,21.558,8.241c21.558,0,32.337-44.277,32.337-62.135S316.975,183.086,299.116,183.086z"/>
<path style="fill:#DC4161;" d="M299.116,183.086c-5.892,0-11.41,1.585-16.166,4.337c9.661,5.593,16.166,16.033,16.166,27.999
	c0,13.723-6.366,43.041-19.095,55.887c5.352,3.925,11.95,6.249,19.095,6.249c21.558,0,32.337-44.277,32.337-62.135
	S316.975,183.086,299.116,183.086z"/>
<path style="fill:#D1E5F5;" d="M423.074,277.558h-53.895c-8.893,0-16.168-7.276-16.168-16.168v-86.232
	c0-8.893,7.276-16.168,16.168-16.168h53.895c8.893,0,16.168,7.276,16.168,16.168v86.232
	C439.242,270.282,431.966,277.558,423.074,277.558z"/>
<path style="fill:#B4D8F1;" d="M423.074,158.989h-32.337c8.893,0,16.168,7.276,16.168,16.168v86.232
	c0,8.893-7.276,16.168-16.168,16.168h32.337c8.893,0,16.168-7.276,16.168-16.168v-86.232
	C439.242,166.265,431.966,158.989,423.074,158.989z"/>
<circle style="fill:#F8E99B;" cx="137.432" cy="180.547" r="32.337"/>
<path style="fill:#2E2D31;" d="M445.259,271.17c1.325-2.994,2.067-6.301,2.067-9.781v-86.232c0-7.613-3.529-14.414-9.033-18.863
	h0.949c4.466,0,8.084-3.618,8.084-8.084c0-4.466-3.618-8.084-8.084-8.084h-56.589v-35.032c0-4.466-3.618-8.084-8.084-8.084H253.305
	V83.537c0-4.466-3.62-8.084-8.084-8.084H72.758c-4.465,0-8.084,3.618-8.084,8.084v188.111C27.671,280.226,0,313.437,0,353.01
	c0,46.062,37.475,83.537,83.537,83.537h344.926c46.062,0,83.537-37.475,83.537-83.537C512,312.699,483.299,278.967,445.259,271.17z
	 M361.095,261.389v-86.232c0-4.458,3.626-8.084,8.084-8.084h53.895c4.458,0,8.084,3.626,8.084,8.084v86.232
	c0,4.458-3.626,8.084-8.084,8.084h-53.895C364.721,269.474,361.095,265.848,361.095,261.389z M366.484,113.179v26.947H353.01
	c-4.466,0-8.084,3.618-8.084,8.084c0,4.466,3.618,8.084,8.084,8.084h0.949c-5.504,4.45-9.033,11.251-9.033,18.863v86.232
	c0,2.834,0.493,5.553,1.391,8.084h-23.979c2.971-4.045,5.857-9.21,8.523-15.789c5.961-14.711,8.676-31.462,8.676-40.8
	c0-22.289-18.132-40.421-40.421-40.421c-4.367,0-8.651,0.727-12.719,2.076c2.68-10.476,12.199-18.244,23.498-18.244
	c4.466,0,8.084-3.618,8.084-8.084c0-4.466-3.618-8.084-8.084-8.084c-20.378,0-37.272,15.16-40.02,34.792
	c-4.405-1.61-9.095-2.455-13.875-2.455c-0.907,0-1.803,0.041-2.695,0.1v-59.384H366.484z M256,188.632
	c5.974,0,11.715,2.195,16.165,6.178c3.07,2.748,7.716,2.748,10.785,0c4.451-3.984,10.191-6.178,16.165-6.178
	c13.372,0,24.253,10.88,24.253,24.253c0,18.264-10.979,54.051-24.253,54.051c-5.974,0-11.715-2.195-16.165-6.178
	c-1.535-1.373-3.464-2.061-5.393-2.061c-1.928,0-3.858,0.688-5.393,2.061c-4.451,3.984-10.191,6.178-16.165,6.178
	c-13.273,0-24.253-35.786-24.253-54.051C231.747,199.512,242.627,188.632,256,188.632z M237.137,177.15
	c-12.809,6.789-21.558,20.256-21.558,35.734c0,9.338,2.715,26.088,8.676,40.8c2.667,6.581,5.553,11.744,8.524,15.789h-22.589V91.621
	h26.947V177.15z M80.842,269.474V91.621h113.179v177.853H83.537H80.842z M428.463,420.379H83.537
	c-37.146,0-67.368-30.221-67.368-67.368s30.222-67.368,67.368-67.368h344.926c37.147,0,67.368,30.221,67.368,67.368
	S465.611,420.379,428.463,420.379z"/>
</svg>